<svg id="Capa_1" data-name="Capa 1" xmlns="http://www.w3.org/2000/svg" viewBox="0 0 627.36 177.5"><defs><style>.cls-1{fill:#d61500;}</style></defs><path class="cls-1" d="M330,266.25l38.59-.09q8.52,60.42,17,119.09l.49-.05q8.7-60.4,17.43-119.11L442.1,266q-.21,79.74-.43,159.49-12.76,1.41-25.53,3l.3-123H416Q406,367.36,396,431.11q-11.28,1.53-22.53,3.19-9.69-62.22-19.45-126.55l-.49,0-.12,129.6q-11.73,1.86-23.44,3.88Z" transform="translate(-330.01 -263.75)"/><path class="cls-1" d="M470.45,414.54q-10.54-9.35-10.49-28.3.12-41.43.23-82.86c0-12.62,3.58-22.44,10.65-29.34s17.24-10.29,30.52-10.29,23.42,3.36,30.46,10,10.53,16,10.51,28.07l-.18,79.56c0,12.11-3.58,21.63-10.65,28.69s-17.27,11.08-30.57,12.13S477.48,420.77,470.45,414.54Zm44.61-30.35.21-83.5q0-15.07-14-14.94t-14.06,15.46q-.12,42.33-.23,84.66c0,10.21,4.63,14.95,14,14.3S515,394.24,515.06,384.19Z" transform="translate(-330.01 -263.75)"/><path class="cls-1" d="M553,265.9h27.28q8.78,58,17.58,115.69h.49l17.83-115.7H641q-13,74.29-26.17,148.81-18,.29-36,.92Q565.85,341.2,553,265.9Z" transform="translate(-330.01 -263.75)"/><path class="cls-1" d="M654,265.87l71.54,0q0,10.74,0,21.48-22.26-.15-44.52-.22,0,20.74,0,41.49,17.48.17,35,.45,0,10.71,0,21.43-17.49-.39-35-.6l.06,64.91q-13.56-.27-27.14-.35Z" transform="translate(-330.01 -263.75)"/><path class="cls-1" d="M738.58,265.91l27,0q.17,65.38.32,130.78,22.29,1.28,44.55,3l.06,22.29q-35.79-3.24-71.66-5.09Q738.73,341.42,738.58,265.91Z" transform="translate(-330.01 -263.75)"/><path class="cls-1" d="M823.15,266l27,0q.22,80,.43,160-13.5-1.51-27-2.84Q823.38,344.62,823.15,266Z" transform="translate(-330.01 -263.75)"/><path class="cls-1" d="M894.35,346.94q-14.93-41.42-29.9-80.88l28.51.05q9.15,26.7,18.28,54.21l.49,0q9.28-26.64,18.6-54.15l25.56.06q-14.86,42.64-29.64,83,15.62,44.65,31.12,92-14.16-2.43-28.34-4.65-9.81-31.23-19.66-61.34l-.49,0q-10,28.21-20,55.56-12.75-1.69-25.51-3.23Q878.86,388.12,894.35,346.94Z" transform="translate(-330.01 -263.75)"/></svg>